<svg xmlns="http://www.w3.org/2000/svg" width="100" height="90">
    <path fill="#FFF" fill-rule="evenodd" d="M48.557.023c-3.504 0-6.377 2.432-7.026 5.757h-.183L18.284 31.743h11.532l15.953-17.937c.859.364 1.802.635 2.788.635 1.001 0 1.927-.271 2.804-.635l15.935 17.937h11.55L55.766 5.78h-.185c-.63-3.325-3.504-5.757-7.024-5.757zM6.754 37.503a5.763 5.763 0 0 0-5.775 5.775v2.883c0 3.043 2.335 5.437 5.324 5.678l9.094 31.806c2.887 5.771 5.775 5.771 8.644 5.771h51.916c2.889 0 5.757 0 8.646-5.771l9.112-31.806c2.969-.241 5.306-2.635 5.306-5.678v-2.883a5.75 5.75 0 0 0-5.757-5.775H6.754zm16.221 14.419h1.434c3.198 0 6.352 2.407 7.026 5.406l4.055 17.941c.678 3.013-1.392 5.489-4.59 5.489h-1.452c-3.193 0-6.347-2.476-7.025-5.489l-4.055-17.941c-.674-2.999 1.408-5.406 4.607-5.406zm27.034 0a5.75 5.75 0 0 1 5.757 5.774v17.302a5.739 5.739 0 0 1-5.757 5.76 5.751 5.751 0 0 1-5.775-5.76V57.696a5.763 5.763 0 0 1 5.775-5.774zm25.582 0h1.452c3.195 0 5.263 2.407 4.589 5.406l-4.055 17.941c-.678 3.013-3.828 5.489-7.026 5.489h-1.453c-3.192 0-5.262-2.476-4.588-5.489l4.055-17.941c.678-2.999 3.828-5.406 7.026-5.406z"/>
</svg>
